<svg id="visual" viewBox="0 0 900 600" width="900" height="600" xmlns="http://www.w3.org/2000/svg" xmlns:xlink="http://www.w3.org/1999/xlink" version="1.1"><rect x="0" y="0" width="900" height="600" fill="#001220"></rect><defs><linearGradient id="grad1_0" x1="33.3%" y1="0%" x2="100%" y2="100%"><stop offset="20%" stop-color="#001220" stop-opacity="1"></stop><stop offset="80%" stop-color="#001220" stop-opacity="1"></stop></linearGradient></defs><defs><linearGradient id="grad2_0" x1="0%" y1="0%" x2="66.7%" y2="100%"><stop offset="20%" stop-color="#001220" stop-opacity="1"></stop><stop offset="80%" stop-color="#001220" stop-opacity="1"></stop></linearGradient></defs><g transform="translate(900, 0)"><path d="M0 486.7C-69 485.6 -137.9 484.5 -186.3 449.7C-234.6 414.9 -262.4 346.3 -295.6 295.6C-328.7 244.9 -367.3 212 -400 165.7C-432.8 119.4 -459.8 59.7 -486.7 0L0 0Z" fill="#9ACB56"></path></g><g transform="translate(0, 600)"><path d="M0 -486.7C59 -467.2 118 -447.6 176.4 -425.9C234.9 -404.2 292.8 -380.5 340.8 -340.8C388.9 -301.2 427 -245.7 449.7 -186.3C472.4 -126.8 479.6 -63.4 486.7 0L0 0Z" fill="#9ACB56"></path></g></svg>