<?xml version="1.0" encoding="utf-8"?>
<!-- Generator: Adobe Illustrator 24.2.1, SVG Export Plug-In . SVG Version: 6.00 Build 0)  -->
<svg version="1.1" id="Layer_1" xmlns="http://www.w3.org/2000/svg" xmlns:xlink="http://www.w3.org/1999/xlink" x="0px" y="0px"
	 viewBox="0 0 30 30" style="enable-background:new 0 0 30 30;" xml:space="preserve">
<style type="text/css">
	.st0{opacity:0;fill:url(#SVGID_1_);}
	.st1{fill:url(#SVGID_2_);}
	.st2{fill:url(#SVGID_3_);}
	.st3{fill:url(#SVGID_4_);}
	.st4{fill:url(#SVGID_5_);}
	.st5{fill:url(#SVGID_6_);}
	.st6{fill:url(#SVGID_7_);}
</style>
<linearGradient id="SVGID_1_" gradientUnits="userSpaceOnUse" x1="4.7548" y1="32.7452" x2="25.2452" y2="-2.7452">
	<stop  offset="0" style="stop-color:#FFFFFF"/>
	<stop  offset="1" style="stop-color:#FFB3AC"/>
</linearGradient>
<rect class="st0" width="30" height="30"/>
<g>
	<linearGradient id="SVGID_2_" gradientUnits="userSpaceOnUse" x1="18.3513" y1="5.686" x2="20.4094" y2="2.1213">
		<stop  offset="0" style="stop-color:#FFFFFF"/>
		<stop  offset="1" style="stop-color:#4AE199"/>
	</linearGradient>
	<polygon class="st1" points="17.64,0.52 17.64,5.27 22.29,5.27 	"/>
	<linearGradient id="SVGID_3_" gradientUnits="userSpaceOnUse" x1="11.0155" y1="6.9751" x2="11.8946" y2="5.4526">
		<stop  offset="0" style="stop-color:#FFFFFF"/>
		<stop  offset="1" style="stop-color:#4AE199"/>
	</linearGradient>
	<circle class="st2" cx="11.46" cy="6.21" r="0.88"/>
	<linearGradient id="SVGID_4_" gradientUnits="userSpaceOnUse" x1="-1.2076" y1="28.9315" x2="15.5918" y2="-0.1658">
		<stop  offset="0" style="stop-color:#FFFFFF"/>
		<stop  offset="1" style="stop-color:#4AE199"/>
	</linearGradient>
	<path class="st3" d="M12.42,26.42H7.09c-0.49,0-0.88-0.39-0.88-0.88c0-0.49,0.39-0.88,0.88-0.88h5.33v-1.75H7.09
		c-0.49,0-0.88-0.39-0.88-0.88s0.39-0.88,0.88-0.88h5.33v-1.7H7.09c-0.49,0-0.88-0.39-0.88-0.88S6.6,17.7,7.09,17.7h5.48
		c0.36-1.02,1.34-1.76,2.49-1.76h0.84c0.14-1.96,1.78-3.51,3.77-3.51h3.25V7.03h-6.15c-0.49,0-0.88-0.39-0.88-0.88V0h-15
		C0.39,0,0,0.39,0,0.88v28.24C0,29.61,0.39,30,0.88,30H13.3C12.14,28.45,12.48,26.95,12.42,26.42z M11.46,3.58
		c1.45,0,2.64,1.18,2.64,2.64c0,1.45-1.18,2.64-2.64,2.64S8.82,7.67,8.82,6.21C8.82,4.76,10,3.58,11.46,3.58z M11.46,8.88
		c2.42,0,4.39,1.97,4.39,4.39c0,0.49-0.39,0.88-0.88,0.88H7.94c-0.49,0-0.88-0.39-0.88-0.88C7.06,10.85,9.03,8.88,11.46,8.88z
		 M4.41,26.42c-0.48,0-0.88-0.39-0.88-0.88c0-0.48,0.39-0.88,0.88-0.88c0.48,0,0.88,0.39,0.88,0.88C5.29,26.03,4.9,26.42,4.41,26.42
		z M4.41,22.91c-0.48,0-0.88-0.39-0.88-0.88s0.39-0.88,0.88-0.88c0.48,0,0.88,0.39,0.88,0.88S4.9,22.91,4.41,22.91z M4.41,19.39
		c-0.48,0-0.88-0.39-0.88-0.88s0.39-0.88,0.88-0.88c0.48,0,0.88,0.39,0.88,0.88S4.9,19.39,4.41,19.39z"/>
	<linearGradient id="SVGID_5_" gradientUnits="userSpaceOnUse" x1="10.813" y1="13.4587" x2="12.3754" y2="10.7525">
		<stop  offset="0" style="stop-color:#FFFFFF"/>
		<stop  offset="1" style="stop-color:#4AE199"/>
	</linearGradient>
	<path class="st4" d="M8.97,12.39h4.97C13.11,10.06,9.8,10.06,8.97,12.39z"/>
	<linearGradient id="SVGID_6_" gradientUnits="userSpaceOnUse" x1="18.82" y1="31.5658" x2="25.0031" y2="20.8563">
		<stop  offset="0" style="stop-color:#FFFFFF"/>
		<stop  offset="1" style="stop-color:#4AE199"/>
	</linearGradient>
	<path class="st5" d="M22.95,24.72c0,0.49-0.39,0.88-0.88,0.88c-0.49,0-0.88-0.39-0.88-0.88v-0.11l-7.02-0.88v3.62
		c0,1.45,1.18,2.64,2.64,2.64h10.55c1.45,0,2.64-1.18,2.64-2.64v-3.62l-7.05,0.88V24.72z"/>
	<linearGradient id="SVGID_7_" gradientUnits="userSpaceOnUse" x1="19.3244" y1="24.9415" x2="25.3837" y2="14.4465">
		<stop  offset="0" style="stop-color:#FFFFFF"/>
		<stop  offset="1" style="stop-color:#4AE199"/>
	</linearGradient>
	<path class="st6" d="M29.12,17.7L29.12,17.7l-2.7,0c0.01-0.09,0,0.07,0-1.46c0-1.13-0.92-2.05-2.05-2.05h-4.71
		c-1.12,0-2.02,0.91-2.02,2.02c0,1.56,0,1.4,0,1.49h-2.59c-0.49,0-0.88,0.39-0.88,0.88v3.4l7.03,0.88c0.06-0.43,0.42-0.76,0.87-0.76
		c0.45,0,0.82,0.34,0.87,0.77L30,21.97v-3.4C30,18.09,29.61,17.7,29.12,17.7z M19.39,17.7c0.01-0.09,0,0.07,0-1.49
		c0-0.15,0.12-0.27,0.27-0.27h4.71c0.16,0,0.29,0.13,0.29,0.29c0,1.53,0,1.37,0,1.46H19.39z"/>
</g>
</svg>
