<svg xmlns="http://www.w3.org/2000/svg" width="60" height="60" viewBox="0 0 60 60">
    <g fill="#242C42" fill-rule="nonzero" opacity=".55">
        <path d="M44.808 35.159c2.289-5.879 2.799-11.345 2.547-18.626a634.382 634.382 0 0 1-.048-1.429c-4.14-.138-8.286-1.367-12.266-3.334a38.425 38.425 0 0 1-4.018-2.293c-.382-.25-.724-.485-1.023-.699-.299.214-.64.449-1.023.7a38.425 38.425 0 0 1-4.018 2.292c-3.98 1.967-8.127 3.196-12.266 3.334l-.006.208a634.43 634.43 0 0 1-.042 1.221c-.252 7.281.258 12.747 2.547 18.626C17.864 42.023 22.632 47.53 30 51.318c7.369-3.787 12.136-9.295 14.808-16.16zM29.646 52.916c-7.932-3.972-13.076-9.851-15.93-17.181-2.385-6.127-2.912-11.777-2.654-19.256l.043-1.218c.012-.401.018-.694.018-.937 0-.438.355-.793.792-.793 4.124 0 8.314-1.192 12.344-3.184A36.851 36.851 0 0 0 28.11 8.15c.682-.447 1.159-.791 1.403-.982a.79.79 0 0 1 .974 0c.244.191.721.535 1.403.982a36.851 36.851 0 0 0 3.851 2.197c4.03 1.992 8.22 3.184 12.344 3.184.437 0 .792.355.792.793 0 .243.006.536.018.937l.043 1.218c.258 7.479-.269 13.129-2.655 19.256-2.853 7.33-7.997 13.209-15.929 17.181a.79.79 0 0 1-.708 0z"/>
        <path d="M37.428 24.674a.79.79 0 0 1 1.12.013c.305.313.3.815-.013 1.121l-10.19 9.988a.79.79 0 0 1-1.094.012l-4.917-4.613a.794.794 0 0 1-.037-1.121.79.79 0 0 1 1.12-.037l4.363 4.094 9.648-9.457z"/>
    </g>
</svg>
