<svg xmlns="http://www.w3.org/2000/svg" width="60" height="60" viewBox="0 0 60 60">
    <g fill="#242C42" fill-rule="nonzero" opacity=".55">
        <path d="M47.825 7.719h-35.65c-2.444 0-4.456 2.156-4.456 4.744V18.5c0 .431.287.719.718.719h43.126c.43 0 .718-.288.718-.719v-6.037c0-2.588-2.012-4.744-4.456-4.744zm3.019 10.062H9.156v-5.318c0-1.87 1.294-3.307 3.019-3.307h35.65c1.581 0 3.019 1.438 3.019 3.306v5.32zM15.724 31.438h29.177c.547 0 .911-.288.911-.72 0-.43-.364-.718-.911-.718H15.724c-.547 0-.912.288-.912.719s.365.718.912.718zM15.813 38.625h16c.6 0 1-.288 1-.719s-.4-.718-1-.718h-16c-.6 0-1 .287-1 .718s.4.719 1 .719zM31.813 44.375h-16c-.6 0-1 .288-1 .719s.4.718 1 .718h16c.6 0 1-.287 1-.718s-.4-.719-1-.719z"/>
        <path d="M51.563 22.094H8.437c-.43 0-.718.287-.718.718v25.3c0 2.3 2.012 4.17 4.456 4.17H40.35l.144-.144 11.5-12.938c.144-.144.144-.288.144-.575V22.812c.143-.43-.144-.718-.575-.718zM9.156 48.112v-24.58H50.7v14.23H40.062c-.43 0-.718.288-.718.72V50.7H12.175c-1.581.144-3.019-1.15-3.019-2.588zm40.681-8.768L40.782 49.55V39.344h9.056z"/>
    </g>
</svg>
