<svg xmlns="http://www.w3.org/2000/svg" width="60" height="60" viewBox="0 0 60 60">
    <g fill="#242C42" fill-rule="nonzero" opacity=".55">
        <path d="M30.218 52.651C23.47 52.651 18 47.133 18 40.326 18 33.518 23.47 28 30.218 28c6.749 0 12.219 5.518 12.219 12.326 0 6.807-5.47 12.325-12.219 12.325zm0-1.533c5.91 0 10.699-4.832 10.699-10.792s-4.79-10.793-10.699-10.793c-5.908 0-10.698 4.832-10.698 10.793 0 5.96 4.79 10.792 10.698 10.792z"/>
        <path d="M24.431 37.22l3.233-.244 1.223-3.032c.542-1.261 2.335-1.261 2.849.016l1.217 3.016 3.232.243c1.384.102 1.938 1.846.883 2.74l-2.466 2.108.77 3.18c.306 1.34-1.15 2.398-2.311 1.676l-2.752-1.715-2.748 1.712c-1.18.748-2.656-.338-2.313-1.682l.767-3.17-2.465-2.108c-1.053-.893-.504-2.604.881-2.74zm.1 1.569l3.183 2.721-.111.46-.88 3.64c-.003.01.013.022.035.009l3.55-2.213.4.249 3.151 1.963c.01.006.035-.011.034-.017l-.99-4.091.358-.306 2.827-2.418c.014-.012.007-.036-.015-.038l-4.173-.313-.177-.44-1.396-3.458c-.003-.007-.034-.007-.038 0l-1.573 3.898-.47.035-3.684.277c-.04.004-.048.027-.033.04l-.489.587.492-.585zM35.809 9.3L25.532 22.628h9.533L45.341 9.3H35.81zm-.372-1.533h11.458c.633 0 .989.733.6 1.237L36.037 23.866a.758.758 0 0 1-.6.296H23.978c-.632 0-.988-.734-.6-1.238L34.838 8.063a.758.758 0 0 1 .6-.296zM20.055 18.553l5.188-6.724L23.572 9.3H13.94l6.115 9.253zm-.68 1.735l-7.487-11.33c-.337-.509.025-1.191.632-1.191h11.458c.255 0 .492.128.633.341l2.2 3.33a.772.772 0 0 1-.032.897l-6.172 7.999a.756.756 0 0 1-1.232-.046z"/>
    </g>
</svg>
