<svg xmlns="http://www.w3.org/2000/svg" width="60" height="60" viewBox="0 0 60 60">
    <g fill="#44A512" fill-rule="nonzero">
        <path d="M48.889 35.056l4.223-4.223a.781.781 0 1 1 1.105 1.105l-4.776 4.775a.781.781 0 0 1-1.104 0l-12.39-12.389a.781.781 0 0 1 0-1.105L53.158 6.01a.781.781 0 1 1 1.105 1.105L37.605 23.772l11.284 11.284zM7.54 37.926a.781.781 0 0 0-.596 1.444l5.99 2.474a.781.781 0 0 0 1.023-.43l5.899-14.6a.781.781 0 0 0-.432-1.016L7.535 20.994a.781.781 0 1 0-.585 1.45l11.164 4.51-5.31 13.145-5.263-2.173zM23.763 36.315c.517.31.684.982.373 1.499l-3.703 6.163a1.093 1.093 0 1 1-1.873-1.126l3.703-6.163c.311-.517.982-.684 1.5-.373zm.804-1.34a2.655 2.655 0 0 0-3.643.909l-3.703 6.163a2.655 2.655 0 1 0 4.552 2.734l3.703-6.162a2.655 2.655 0 0 0-.909-3.644z"/>
        <path d="M26.17 39.584c.518.311.685.982.374 1.5l-2.898 4.823a1.093 1.093 0 1 1-1.873-1.125l2.898-4.824c.31-.517.982-.685 1.5-.374zm.805-1.34a2.655 2.655 0 0 0-3.643.91l-2.898 4.823a2.655 2.655 0 1 0 4.551 2.735l2.899-4.824a2.655 2.655 0 0 0-.909-3.643z"/>
        <path d="M28.58 42.855c.517.31.685.982.374 1.5l-2.094 3.483a1.093 1.093 0 0 1-1.873-1.125l2.094-3.484c.31-.517.982-.685 1.499-.374zm.805-1.34a2.655 2.655 0 0 0-3.644.909l-2.093 3.484a2.655 2.655 0 1 0 4.552 2.735l2.093-3.484a2.655 2.655 0 0 0-.908-3.643z"/>
        <path d="M30.855 46.26c.517.31.684.981.374 1.498l-1.29 2.145a1.093 1.093 0 1 1-1.872-1.125l1.288-2.145c.311-.517.982-.685 1.5-.374zm.804-1.34a2.655 2.655 0 0 0-3.643.908l-1.289 2.145a2.655 2.655 0 0 0 4.552 2.735l1.289-2.145a2.655 2.655 0 0 0-.909-3.643zM41.42 39.309a.781.781 0 0 0-.828 1.325l1.68 1.05a2.655 2.655 0 1 0 2.813-4.504l-5.055-3.158a.781.781 0 0 0-.828 1.325l5.055 3.158a1.093 1.093 0 1 1-1.158 1.853l-1.68-1.049z"/>
        <path d="M38.227 41.733a.781.781 0 0 0-.828 1.325l2.195 1.372a2.655 2.655 0 1 0 2.814-4.503L38.044 37.2a.781.781 0 0 0-.828 1.325l4.364 2.727a1.093 1.093 0 1 1-1.158 1.853l-2.195-1.372z"/>
        <path d="M36.423 45.028a.781.781 0 0 0-.828 1.325l.316.198a2.655 2.655 0 0 0 2.814-4.504l-2.668-1.667a.781.781 0 1 0-.828 1.325l2.668 1.667a1.093 1.093 0 1 1-1.158 1.854l-.316-.198z"/>
        <path d="M32.593 47.05a.781.781 0 1 0-.796 1.344l1.45.858a2.655 2.655 0 0 0 2.814-4.503l-2.122-1.326a.781.781 0 1 0-.828 1.325l2.122 1.326c.511.32.667.994.347 1.506-.32.511-.994.667-1.521.338l-1.466-.869zM22.905 28.95a1.093 1.093 0 0 0 .888 1.997l4.279-1.905a.781.781 0 1 1 .635 1.427l-4.278 1.905a2.655 2.655 0 0 1-2.16-4.85l6.568-2.925a.781.781 0 0 1 .4-.063l5.564.588 2.427-.572a.781.781 0 0 1 .358 1.521l-2.556.603-.261.016-5.488-.58-6.376 2.839z"/>
        <path d="M18.362 29.262v-1.563h3.564v1.563zM31.658 30.766a.781.781 0 0 1 .31-1.532l1.992.403.292.125 2.91 2.03a.781.781 0 1 1-.895 1.281l-2.776-1.937-1.833-.37zM13.923 39.233l.732-1.38 4.523 2.398-.732 1.38zM46.459 33.58l1.117 1.091-3.32 3.4-1.119-1.092z"/>
    </g>
</svg>
